**ABCDEFGHIJKLMNOPQRSTUVWXYZabcdefghijklmnopqrstuvwxyz**************************
**PARASOLID !"#$%&'()*+,-./:;<=>?@[\]^_`{|}~0123456789**************************
**PART1;
FORMAT=text;
GUISE=transmit;
KEY=unicode filename;
FILE=unicode filename;
DATE=unknown;
**PART2;
SCH=SCH_3200152_32001;
USFLD_SIZE=0;
**PART3;
**END_OF_HEADER*****************************************************************
T51 : TRANSMIT FILE created by modeller version 320015217 SCH_1300000_130060 12
 1 23 2 3 0 0 0 0 1e3 1e-8 0 0 0 1 0 1 1 4 5 6 7 8 9 10 81 1 2 23 11 1 0 0 0 0 1
2 70 3 0 1 0 0 4 1 20 4 13 13 1 T13 4 15 0 1 0 14 0 0 15 0 50 5 18 0 16 17 0 0 +
0 0 0 -1 0 0 0 0 1 31 6 22 0 9 18 0 0 +.005 0 0 1 0 0 0 0 -1 .001 29 7 20 0 10 1
9 0 .005 0 -.001 19 8 1 0 1 15 0 20 V16 9 8 0 ?21 0 22 6 0 0 1 18 10 9 0 21 0 23
 7 ?1 17 21 0 24 21 21 10 25 9 0 25 +18 23 6 0 26 10 0 19 ?1 17 26 0 27 26 26 23
 28 22 0 28 +29 19 19 0 23 0 7 0 0 -.001 15 27 11 0 26 16 0 17 28 0 29 28 28 23
 26 22 0 0 -16 22 5 0 ?26 9 0 18 0 0 1 31 18 21 0 22 0 6 0 +0 0 0 -1 0 0 0 0 -1
 .001 15 29 4 0 28 30 0 14 30 3 0 ?0 16 31 4 32 +0 0 0 16 20 14 16 10 0 ?30 14 2
7 4 5 +0 0 30 14 20 15 31 7 0 25 30 29 51 32 16 0 30 0 17 0 +.0025 0 0 -1 0 0 .0
01 0 0 -1 13 20 2 0 0 0 0 0 0 8 14 14 14 12 0 ?16 0 24 4 17 +0 0 16 0 20 15 24 1
3 0 21 14 0 50 17 17 0 14 32 5 0 +.005 0 0 1 0 0 0 0 -1 17 25 0 31 25 25 10 21 9
 0 0 -19 15 14 0 1 0 8 4 S74 20 13 1 0 2 0 0 0 0 0 0 0 0 0 0 0 0 0 0 0 0 0 0 0 8
0 1 11 33 34 8017 0 0 0 0 0 0 0 0 0 TTTTTTTTTTTTTF3 84 16 12 din976-1m2x5a4_879
 13 34 SDL/TYSA_NAME1 0 
